# xmcd
#
# Track frame offsets: 
#        150
#        12391
#        23915
#        36616
#        50439
#        61261
#        72963
#        85197
#        96974
#        108725
#        121672
#        136017
#        149710
#        159577
#        172702
#        185520
#        196206
#        208461
#        221133
#        233529
#        244696
#        260111
#
# Disc length: 3631 seconds
#
# Revision: 0
# Processed by: cddbd v1.5.2PL0 Copyright (c) Steve Scherf et al.
# Submitted via: ExactAudioCopy v0.99pb5
#
DISCID=460e2d16
DTITLE=Various Artist - La Collection en Or COUNTRY 1
DYEAR=2009
DGENRE=Country
TTITLE0=Johnny Cash - Walk The Line
TTITLE1=Willie Nelson - Touch Me
TTITLE2=Lynn Anderson - Top Of The World
TTITLE3=Moe Bandy - I Cheated Me Right Out Of You
TTITLE4=Dolly Parton - God Didn't Make Honky Tonk Angels
TTITLE5=Donna Fargo - The Happiest Girl In The Whole USA
TTITLE6=Jack Greene - All The Time
TTITLE7=Roy Drusky - Take These Chaines From My Heart
TTITLE8=Jeanne Pruett - Standing On The Promises
TTITLE9=Freddy Fender - Silver Wings
TTITLE10=Willie Nelson - Will You Remember
TTITLE11=Lacy J. Dalton - 16th Avenue
TTITLE12=Kitty Wells - I Can't Stop Loving You
TTITLE13=Dave Dudley - The Pool Shark
TTITLE14=TG Sheppard - Devil In The Bottle
TTITLE15=Patsy Cline - Stop Look And Listen
TTITLE16=Lynn Anderson - Stand By Your Man
TTITLE17=Donna Fargo - Don't Be Angry
TTITLE18=Johnny Paycheck - Take This Job And Shove It
TTITLE19=Ferlin Husky - San Antone Rose
TTITLE20=Exile - Crazy For Your Love
TTITLE21=Dolly Parton - Two Little Orphans
EXTD=
EXTT0=
EXTT1=
EXTT2=
EXTT3=
EXTT4=
EXTT5=
EXTT6=
EXTT7=
EXTT8=
EXTT9=
EXTT10=
EXTT11=
EXTT12=
EXTT13=
EXTT14=
EXTT15=
EXTT16=
EXTT17=
EXTT18=
EXTT19=
EXTT20=
EXTT21=
PLAYORDER=
